<svg version="1.1" id="Layer_1" xmlns="http://www.w3.org/2000/svg" xmlns:xlink="http://www.w3.org/1999/xlink" x="0px" y="0px"
	 height="68" width="238" viewBox="0 0 799.2 228.2" style="enable-background:new 0 0 799.2 228.2;" xml:space="preserve">
<style type="text/css">
	.st0{fill:#00355B;}
</style>
<path class="st0" d="M260.5,119.9c-0.9,22-8.7,45.5-25.7,66c-0.8,1-1.4,1.3-2.4,1.3c-1,0-1.7-0.4-2.6-1c-1.6-1.2-5.3-4.2-6.5-5.2
	c-1.1-0.9-1.7-1.7-1.7-2.8c0-1,0.5-2,1.2-3c11.3-16.3,17.4-30.1,19.7-45C247.4,127.9,255.4,123.3,260.5,119.9z M211,144
	c-5.5,2.1-11.3,4.2-17.3,6.3V212c0,2.2,1,3.3,2.9,3.3c0.7,0,1.4-0.1,2.4-0.5c2-0.9,7.5-3.8,9.6-5.3c2.1-1.5,2.4-2.7,2.4-5.7V144z
	 M157.3,161.3v61.3c0,2.1,1,3.3,3.3,3.3c2.4,0,7.3-1.1,10.3-2.1c2.5-0.8,3.3-2,3.3-4.4v-63C168.7,158.1,163.1,159.7,157.3,161.3z
	 M62.5,177.2v11.3c0,4,0.8,5.6,3.2,7.5c2.4,2,5.3,4.3,8.3,6.9c1.1,0.9,2.1,1.3,3,1.3c1.4,0,2.3-0.9,2.3-2.9V176
	C73.7,176.5,68,176.9,62.5,177.2z M122.8,169.5v34.7c0,2.5-1,3.4-3,3.4c-2.1,0-5.8-0.8-7.9-2c-2.5-1.5-3.1-2.9-3.1-6.1V172
	c-5.7,1-11.4,1.8-17,2.6l0,30.5c0,6.4,1.9,9.8,8,13.2c7.9,4.5,24.5,8.5,32.7,8.5c5,0,7.5-2.8,7.5-7.1v-54.2
	C134.2,167,128.5,168.3,122.8,169.5z M289.4,75.9c0,27.4-66.1,63-153.8,83.6c-27.3,6.4-58.5,11.5-83.3,11.5
	c-36.1,0-50.9-12.8-50.9-27.3c0-8.8,5.3-17.1,16.5-24.6c0.6-0.4,1.2-0.7,1.7-0.7c0.6,0,1,0.4,1,1c0,0.5-0.3,0.9-0.9,1.4
	c-8.8,6.9-13.2,14.1-13.2,21.6c0,10.2,11.2,21.3,45.1,21.3c3.3,0,6.9-0.1,10.9-0.3v-42H47.1c0.5,7.5,1.8,13.9,4.4,23.1
	c0.3,1,0.5,1.9,0.5,2.4c0,1.4-0.7,2.2-2.8,3c-2.5,0.9-4.8,1.7-7,2.5c-0.9,0.3-1.7,0.5-2.4,0.5c-1.6,0-2.5-0.9-3.2-2.7
	c-4.8-11.4-6.6-26-6.6-37.7c0-33.6,18-66.7,43.5-86c1.2-1,2.4-1.3,3.3-1.3c1.7,0,2.7,1.3,2.7,2.7v134.2c4-0.4,8.2-1,12.5-1.6v-24.4
	c0-3.1,1.2-4.2,4.5-4.2h8c3.3,0,4.4,1.1,4.4,4.2v21.7c4.6-0.8,9.2-1.7,13.9-2.7v-23c0-4.3-1.1-6-4.4-7.9c-3.3-2-9.9-5.9-14.5-8.6
	c-8.2-4.9-12-9.4-12-19.8V24.7c0-5.2,1.1-8.6,5.8-11.6c9.2-5.9,25.6-11.4,33.5-11.4c4.9,0,7,2.3,7,6.2v80.2c0,3.1-1,4.2-4.4,4.2
	h-8.2c-3.3,0-4.4-1.1-4.4-4.2V24.8c0-2.5-0.6-3.4-2.5-3.4c-1.5,0-4.4,1-6.7,2.4c-2.4,1.5-3,3.1-3,6.1v61.8c0,4.4,0.7,5.7,4.3,7.9
	c4.3,2.7,10.6,6.4,14.5,8.6c8.6,5,12,10,12,19.8v23c5.8-1.4,11.6-2.9,17.3-4.5V18.8c-2-0.3-5.9-0.7-9.9-1.1
	c-3.2-0.3-3.7-1.6-3.7-3.9V5.3c0-2.5,1.3-3.9,4.1-3.9c10.4,0,29,3.7,36.8,6.8c3.1,1.2,3.7,2.4,3.7,4.7v9.7c0,2.1-1.1,3-2.6,3
	c-0.7,0-1.4-0.2-3-0.7c-3.5-1.1-6.5-2.1-8.5-2.6v119.4c6.7-2.1,13.2-4.3,19.6-6.5v-120c0-1.8,1-3,2.6-3c1.8,0,2.7,1.4,4,4.3
	c4.9,11.4,16.7,38.6,26.1,60.3c3.4-9.4,7.5-20.9,8.4-23.4c0.6-1.8,1.5-2.7,2.9-2.7c1.1,0,1.9,0.5,3.2,2.1
	c10.7,14.7,17.3,31.3,19.1,51.2c15-9.9,24.1-19.8,24.1-28.4c0-8.5-8.1-15.7-27.6-16.7c-0.9,0-1.4-0.5-1.4-1.2c0-0.6,0.5-1.1,1.5-1.1
	C278.8,56.6,289.4,66.2,289.4,75.9z M62.5,104.5V61.3C53.8,73,48.3,89.2,47,104.5H62.5z M211,128.5c11.9-4.8,22.9-9.8,32.6-15
	c-0.1-12.1-1.8-20.6-5.2-27.5c-3.5,8.4-8.5,20.5-10,24c-0.5,1.3-1.3,2.1-2.3,2.1c-1,0-1.6-0.6-2.3-2c-1.1-2.1-7.8-16-12.8-26.5
	V128.5z"/>
<g>
	<path class="st0" d="M365.2,100.5c-1.1,0-2.2-0.7-2.6-1.8l-3.3-8.3h-21.7l-3.3,8.3c-0.5,1.1-1.5,1.8-2.6,1.8
		c-1.8,0-2.9-1.4-2.9-2.9c0-0.3,0.1-0.7,0.2-1L344,59c0.7-1.8,2.4-2.9,4.4-2.9c1.9,0,3.6,1.2,4.3,2.9L368,96.5
		c0.1,0.3,0.2,0.7,0.2,1C368.2,98.9,367,100.5,365.2,100.5z M357.7,85.5l-9.2-23.5l-9.3,23.5H357.7z"/>
	<path class="st0" d="M389.5,100.8c-6.4,0-11.7-2.2-15.3-5.4c-0.6-0.5-0.9-1.2-0.9-2c0-1.3,1-2.7,2.6-2.7c0.5,0,1.1,0.1,1.6,0.5
		c3.1,2.7,7.2,4.8,12.2,4.8c7.8,0,10.3-4.2,10.3-7.5c0-11.2-25.8-5-25.8-20.6c0-7.1,6.4-12.1,15-12.1c5.6,0,10.5,1.7,14,4.6
		c0.6,0.5,0.9,1.2,0.9,2c0,1.3-1,2.6-2.6,2.6c-0.6,0-1.1-0.2-1.6-0.6c-3.2-2.6-7.2-3.8-11.2-3.8c-5.2,0-9,2.7-9,6.9
		c0,9.8,25.8,4.2,25.8,20.5C405.6,94.4,401.3,100.8,389.5,100.8z"/>
	<path class="st0" d="M441.1,61.3h-11.9v36.5c0,1.5-1.2,2.7-2.7,2.7c-1.5,0-2.7-1.2-2.7-2.7V61.3H412c-1.3,0-2.4-1-2.4-2.5
		c0-1.3,1-2.4,2.4-2.4h29.2c1.3,0,2.4,1,2.4,2.5C443.5,60.2,442.4,61.3,441.1,61.3z"/>
	<path class="st0" d="M492,97.8c0,1.5-1.2,2.7-2.7,2.7c-1.5,0-2.7-1.2-2.7-2.7V64.2l-14.6,35.4c-0.2,0.5-0.7,0.9-1.4,0.9
		c-0.5,0-1-0.3-1.2-0.9l-14.6-35.4v33.6c0,1.5-1.2,2.7-2.7,2.7c-1.5,0-2.7-1.2-2.7-2.7V60.5c0-2.4,2-4.4,4.5-4.4
		c1.8,0,3.6,1,4.3,2.7l12.5,30.4l12.6-30.4c0.7-1.8,2.5-2.7,4.3-2.7c2.4,0,4.5,2,4.5,4.4V97.8z"/>
	<path class="st0" d="M334.2,168.6c0,1.5-1.2,2.7-2.7,2.7c-1.5,0-2.7-1.2-2.7-2.7v-39.1c0-1.5,1.2-2.6,2.8-2.6
		c1.5,0,2.6,1.1,2.6,2.6V168.6z"/>
	<path class="st0" d="M378.9,168.2c0,1.6-1.3,3.1-3.3,3.1c-1,0-2.1-0.5-2.7-1.4l-24.7-33.8v32.5c0,1.5-1.2,2.7-2.7,2.7
		c-1.5,0-2.7-1.2-2.7-2.7v-38.5c0-1.8,1.4-3.3,3.5-3.3c1.1,0,2.2,0.5,2.9,1.4l24.3,33v-31.8c0-1.5,1.2-2.6,2.8-2.6
		c1.5,0,2.6,1.1,2.6,2.6V168.2z"/>
	<path class="st0" d="M416.5,132.1h-11.9v36.5c0,1.5-1.2,2.7-2.7,2.7c-1.5,0-2.7-1.2-2.7-2.7v-36.5h-11.8c-1.3,0-2.4-1-2.4-2.5
		c0-1.3,1-2.4,2.4-2.4h29.2c1.3,0,2.4,1,2.4,2.5C418.9,131.1,417.9,132.1,416.5,132.1z"/>
	<path class="st0" d="M451.3,170.9h-22.7c-2.2,0-3.9-1.8-3.9-3.9v-35.8c0-2.2,1.8-3.9,3.9-3.9h22.7c1.3,0,2.4,1,2.4,2.5
		c0,1.3-1,2.4-2.4,2.4h-21.2v14.1h20.7c1.3,0,2.4,1,2.4,2.5c0,1.3-1,2.4-2.4,2.4h-20.7v15h21.2c1.3,0,2.4,1,2.4,2.4
		C453.7,169.9,452.6,170.9,451.3,170.9z"/>
	<path class="st0" d="M481.5,153.1l9.4,14.2c0.3,0.5,0.4,0.9,0.4,1.4c0,1.3-1.1,2.6-2.7,2.6c-0.9,0-1.6-0.4-2.2-1.2l-10.7-16.5H467
		v15c0,1.5-1.2,2.7-2.7,2.7c-1.5,0-2.7-1.2-2.7-2.7v-37.4c0-2.2,1.8-3.9,3.9-3.9h13.6c8,0,13.7,5.1,13.7,13.1
		C492.8,148.3,487.5,152.6,481.5,153.1z M467,132.1v16.7h11.4c5.2,0,8.7-3.4,8.7-8.4c0-5-3.5-8.3-8.7-8.3H467z"/>
	<path class="st0" d="M536.8,168.2c0,1.6-1.3,3.1-3.3,3.1c-1,0-2.1-0.5-2.7-1.4l-24.7-33.8v32.5c0,1.5-1.2,2.7-2.7,2.7
		c-1.5,0-2.7-1.2-2.7-2.7v-38.5c0-1.8,1.4-3.3,3.5-3.3c1.1,0,2.2,0.5,2.9,1.4l24.3,33v-31.8c0-1.5,1.2-2.6,2.8-2.6
		c1.5,0,2.6,1.1,2.6,2.6V168.2z"/>
	<path class="st0" d="M579.8,171.3c-1.1,0-2.2-0.7-2.6-1.8l-3.3-8.3h-21.7l-3.3,8.3c-0.5,1.1-1.5,1.8-2.6,1.8
		c-1.8,0-2.9-1.4-2.9-2.9c0-0.3,0.1-0.7,0.2-1l15-37.5c0.7-1.8,2.4-2.9,4.4-2.9c1.9,0,3.6,1.2,4.3,2.9l15.2,37.5
		c0.1,0.3,0.2,0.7,0.2,1C582.7,169.7,581.6,171.3,579.8,171.3z M572.3,156.4l-9.2-23.5l-9.3,23.5H572.3z"/>
	<path class="st0" d="M610.9,132.1H599v36.5c0,1.5-1.2,2.7-2.7,2.7c-1.5,0-2.7-1.2-2.7-2.7v-36.5h-11.8c-1.3,0-2.4-1-2.4-2.5
		c0-1.3,1-2.4,2.4-2.4h29.2c1.3,0,2.4,1,2.4,2.5C613.3,131.1,612.2,132.1,610.9,132.1z"/>
	<path class="st0" d="M625.2,168.6c0,1.5-1.2,2.7-2.7,2.7c-1.5,0-2.7-1.2-2.7-2.7v-39.1c0-1.5,1.2-2.6,2.8-2.6
		c1.5,0,2.6,1.1,2.6,2.6V168.6z"/>
	<path class="st0" d="M653.9,171.7c-12.9,0-21.6-9.7-21.6-22.6c0-12.9,8.8-22.6,21.6-22.6s21.6,9.7,21.6,22.6
		C675.6,162,666.8,171.7,653.9,171.7z M653.9,131.4c-9.8,0-16,7.5-16,17.7c0,10.1,6.2,17.7,16,17.7c9.7,0,16-7.6,16-17.7
		C669.9,138.9,663.6,131.4,653.9,131.4z"/>
	<path class="st0" d="M719.2,168.2c0,1.6-1.3,3.1-3.3,3.1c-1,0-2.1-0.5-2.7-1.4l-24.7-33.8v32.5c0,1.5-1.2,2.7-2.7,2.7
		c-1.5,0-2.7-1.2-2.7-2.7v-38.5c0-1.8,1.4-3.3,3.5-3.3c1.1,0,2.2,0.5,2.9,1.4l24.3,33v-31.8c0-1.5,1.2-2.6,2.8-2.6
		c1.5,0,2.6,1.1,2.6,2.6V168.2z"/>
	<path class="st0" d="M762.2,171.3c-1.1,0-2.2-0.7-2.6-1.8l-3.3-8.3h-21.7l-3.3,8.3c-0.5,1.1-1.5,1.8-2.6,1.8
		c-1.8,0-2.9-1.4-2.9-2.9c0-0.3,0.1-0.7,0.2-1l15-37.5c0.7-1.8,2.4-2.9,4.4-2.9c1.9,0,3.6,1.2,4.3,2.9l15.2,37.5
		c0.1,0.3,0.2,0.7,0.2,1C765.1,169.7,764,171.3,762.2,171.3z M754.7,156.4l-9.2-23.5l-9.3,23.5H754.7z"/>
	<path class="st0" d="M795.5,170.9h-19.8c-2.2,0-3.9-1.8-3.9-3.9v-37.5c0-1.5,1.2-2.6,2.8-2.6c1.5,0,2.6,1.1,2.6,2.6v36.6h18.3
		c1.3,0,2.4,1,2.4,2.4C797.8,169.9,796.8,170.9,795.5,170.9z"/>
</g>
</svg>
